<?xml version="1.0" standalone="no"?>
<!DOCTYPE svg PUBLIC "-//W3C//DTD SVG 20010904//EN"
 "http://www.w3.org/TR/2001/REC-SVG-20010904/DTD/svg10.dtd">
<svg version="1.0" xmlns="http://www.w3.org/2000/svg"
 width="512.000000pt" height="512.000000pt" viewBox="0 0 512.000000 512.000000"
 preserveAspectRatio="xMidYMid meet">
<metadata>
Created by potrace 1.14, written by Peter Selinger 2001-2017
</metadata>
<g transform="translate(0.000000,512.000000) scale(0.100000,-0.100000)"
fill="#000000" stroke="none">
<path d="M235 4790 c-11 -4 -31 -20 -45 -35 l-25 -27 0 -2169 0 -2169 33 -32
32 -33 2330 0 2330 0 32 33 33 32 0 2170 0 2170 -33 32 -32 33 -2318 2 c-1274
1 -2326 -2 -2337 -7z m1241 -997 c294 -235 534 -430 534 -433 0 -7 -1064 -860
-1073 -860 -3 0 -49 54 -102 121 -81 101 -95 123 -84 134 8 8 178 145 379 305
201 161 365 296 365 300 0 4 -164 139 -365 300 -201 160 -371 297 -379 305
-11 11 3 33 84 134 53 67 99 121 102 121 3 0 246 -192 539 -427z m1244 -1073
l0 -160 -480 0 -480 0 0 160 0 160 480 0 480 0 0 -160z"/>
</g>
</svg>
